<svg viewBox="0 0 1920 1080" xmlns="http://www.w3.org/2000/svg"><rect width="1920" height="1080" fill="#2A363B"/><line x1="1620" y1="242" x2="1780" y2="487" stroke="#5FA8CC" stroke-width="1" opacity="0.1"/><line x1="1780" y1="487" x2="1500" y2="919" stroke="#5FA8CC" stroke-width="1" opacity="0.1"/><line x1="250" y1="907" x2="120" y2="575" stroke="#5FA8CC" stroke-width="1" opacity="0.1"/><line x1="120" y1="575" x2="430" y2="195" stroke="#5FA8CC" stroke-width="1" opacity="0.1"/><line x1="1620.0" y1="147.0" x2="1557.0" y2="178.5" stroke="#5FA8CC" stroke-width="2.40" opacity="0.28"/><line x1="1620.0" y1="147.0" x2="1683.0" y2="178.5" stroke="#5FA8CC" stroke-width="2.40" opacity="0.28"/><line x1="1557.0" y1="178.5" x2="1557.0" y2="241.5" stroke="#5FA8CC" stroke-width="2.40" opacity="0.28"/><line x1="1683.0" y1="178.5" x2="1683.0" y2="241.5" stroke="#5FA8CC" stroke-width="2.40" opacity="0.28"/><line x1="1557.0" y1="241.5" x2="1620.0" y2="273.0" stroke="#5FA8CC" stroke-width="2.40" opacity="0.28"/><line x1="1683.0" y1="241.5" x2="1620.0" y2="273.0" stroke="#5FA8CC" stroke-width="2.40" opacity="0.28"/><line x1="1557.0" y1="178.5" x2="1620.0" y2="210.0" stroke="#5FA8CC" stroke-width="3.30" opacity="0.47"/><line x1="1683.0" y1="178.5" x2="1620.0" y2="210.0" stroke="#5FA8CC" stroke-width="3.30" opacity="0.47"/><line x1="1620.0" y1="210.0" x2="1620.0" y2="273.0" stroke="#5FA8CC" stroke-width="3.30" opacity="0.47"/><line x1="1620.0" y1="241.5" x2="1620.0" y2="147.0" stroke="#5FA8CC" stroke-width="1.65" opacity="0.17"/><line x1="1620.0" y1="241.5" x2="1557.0" y2="178.5" stroke="#5FA8CC" stroke-width="1.65" opacity="0.17"/><line x1="1620.0" y1="241.5" x2="1683.0" y2="178.5" stroke="#5FA8CC" stroke-width="1.65" opacity="0.17"/><line x1="1620.0" y1="241.5" x2="1557.0" y2="241.5" stroke="#5FA8CC" stroke-width="1.65" opacity="0.17"/><line x1="1620.0" y1="241.5" x2="1683.0" y2="241.5" stroke="#5FA8CC" stroke-width="1.65" opacity="0.17"/><line x1="1620.0" y1="241.5" x2="1620.0" y2="273.0" stroke="#5FA8CC" stroke-width="1.65" opacity="0.17"/><circle cx="1620.0" cy="147.0" r="7.50" fill="#5FA8CC" opacity="0.22"/><circle cx="1557.0" cy="178.5" r="9.00" fill="#5FA8CC" opacity="0.41"/><circle cx="1683.0" cy="178.5" r="9.00" fill="#5FA8CC" opacity="0.41"/><circle cx="1557.0" cy="241.5" r="9.00" fill="#5FA8CC" opacity="0.41"/><circle cx="1683.0" cy="241.5" r="9.00" fill="#5FA8CC" opacity="0.41"/><circle cx="1620.0" cy="273.0" r="10.50" fill="#5FA8CC" opacity="0.47"/><circle cx="1620.0" cy="210.0" r="10.50" fill="#5FA8CC" opacity="0.52"/><circle cx="1620.0" cy="241.5" r="13.50" fill="#8FC3DE" opacity="0.65"/><line x1="1780.0" y1="436.4" x2="1746.4" y2="453.2" stroke="#5FA8CC" stroke-width="1.28" opacity="0.20"/><line x1="1780.0" y1="436.4" x2="1813.6" y2="453.2" stroke="#5FA8CC" stroke-width="1.28" opacity="0.20"/><line x1="1746.4" y1="453.2" x2="1746.4" y2="486.8" stroke="#5FA8CC" stroke-width="1.28" opacity="0.20"/><line x1="1813.6" y1="453.2" x2="1813.6" y2="486.8" stroke="#5FA8CC" stroke-width="1.28" opacity="0.20"/><line x1="1746.4" y1="486.8" x2="1780.0" y2="503.6" stroke="#5FA8CC" stroke-width="1.28" opacity="0.20"/><line x1="1813.6" y1="486.8" x2="1780.0" y2="503.6" stroke="#5FA8CC" stroke-width="1.28" opacity="0.20"/><line x1="1746.4" y1="453.2" x2="1780.0" y2="470.0" stroke="#5FA8CC" stroke-width="1.76" opacity="0.34"/><line x1="1813.6" y1="453.2" x2="1780.0" y2="470.0" stroke="#5FA8CC" stroke-width="1.76" opacity="0.34"/><line x1="1780.0" y1="470.0" x2="1780.0" y2="503.6" stroke="#5FA8CC" stroke-width="1.76" opacity="0.34"/><line x1="1780.0" y1="486.8" x2="1780.0" y2="436.4" stroke="#5FA8CC" stroke-width="0.88" opacity="0.12"/><line x1="1780.0" y1="486.8" x2="1746.4" y2="453.2" stroke="#5FA8CC" stroke-width="0.88" opacity="0.12"/><line x1="1780.0" y1="486.8" x2="1813.6" y2="453.2" stroke="#5FA8CC" stroke-width="0.88" opacity="0.12"/><line x1="1780.0" y1="486.8" x2="1746.4" y2="486.8" stroke="#5FA8CC" stroke-width="0.88" opacity="0.12"/><line x1="1780.0" y1="486.8" x2="1813.6" y2="486.8" stroke="#5FA8CC" stroke-width="0.88" opacity="0.12"/><line x1="1780.0" y1="486.8" x2="1780.0" y2="503.6" stroke="#5FA8CC" stroke-width="0.88" opacity="0.12"/><circle cx="1780.0" cy="436.4" r="4.00" fill="#5FA8CC" opacity="0.16"/><circle cx="1746.4" cy="453.2" r="4.80" fill="#5FA8CC" opacity="0.30"/><circle cx="1813.6" cy="453.2" r="4.80" fill="#5FA8CC" opacity="0.30"/><circle cx="1746.4" cy="486.8" r="4.80" fill="#5FA8CC" opacity="0.30"/><circle cx="1813.6" cy="486.8" r="4.80" fill="#5FA8CC" opacity="0.30"/><circle cx="1780.0" cy="503.6" r="5.60" fill="#5FA8CC" opacity="0.34"/><circle cx="1780.0" cy="470.0" r="5.60" fill="#5FA8CC" opacity="0.38"/><circle cx="1780.0" cy="486.8" r="7.20" fill="#8FC3DE" opacity="0.50"/><line x1="250.0" y1="825.4" x2="195.4" y2="852.7" stroke="#5FA8CC" stroke-width="2.08" opacity="0.25"/><line x1="250.0" y1="825.4" x2="304.6" y2="852.7" stroke="#5FA8CC" stroke-width="2.08" opacity="0.25"/><line x1="195.4" y1="852.7" x2="195.4" y2="907.3" stroke="#5FA8CC" stroke-width="2.08" opacity="0.25"/><line x1="304.6" y1="852.7" x2="304.6" y2="907.3" stroke="#5FA8CC" stroke-width="2.08" opacity="0.25"/><line x1="195.4" y1="907.3" x2="250.0" y2="934.6" stroke="#5FA8CC" stroke-width="2.08" opacity="0.25"/><line x1="304.6" y1="907.3" x2="250.0" y2="934.6" stroke="#5FA8CC" stroke-width="2.08" opacity="0.25"/><line x1="195.4" y1="852.7" x2="250.0" y2="880.0" stroke="#5FA8CC" stroke-width="2.86" opacity="0.42"/><line x1="304.6" y1="852.7" x2="250.0" y2="880.0" stroke="#5FA8CC" stroke-width="2.86" opacity="0.42"/><line x1="250.0" y1="880.0" x2="250.0" y2="934.6" stroke="#5FA8CC" stroke-width="2.86" opacity="0.42"/><line x1="250.0" y1="907.3" x2="250.0" y2="825.4" stroke="#5FA8CC" stroke-width="1.43" opacity="0.15"/><line x1="250.0" y1="907.3" x2="195.4" y2="852.7" stroke="#5FA8CC" stroke-width="1.43" opacity="0.15"/><line x1="250.0" y1="907.3" x2="304.6" y2="852.7" stroke="#5FA8CC" stroke-width="1.43" opacity="0.15"/><line x1="250.0" y1="907.3" x2="195.4" y2="907.3" stroke="#5FA8CC" stroke-width="1.43" opacity="0.15"/><line x1="250.0" y1="907.3" x2="304.6" y2="907.3" stroke="#5FA8CC" stroke-width="1.43" opacity="0.15"/><line x1="250.0" y1="907.3" x2="250.0" y2="934.6" stroke="#5FA8CC" stroke-width="1.43" opacity="0.15"/><circle cx="250.0" cy="825.4" r="6.50" fill="#5FA8CC" opacity="0.20"/><circle cx="195.4" cy="852.7" r="7.80" fill="#5FA8CC" opacity="0.38"/><circle cx="304.6" cy="852.7" r="7.80" fill="#5FA8CC" opacity="0.38"/><circle cx="195.4" cy="907.3" r="7.80" fill="#5FA8CC" opacity="0.38"/><circle cx="304.6" cy="907.3" r="7.80" fill="#5FA8CC" opacity="0.38"/><circle cx="250.0" cy="934.6" r="9.10" fill="#5FA8CC" opacity="0.42"/><circle cx="250.0" cy="880.0" r="9.10" fill="#5FA8CC" opacity="0.47"/><circle cx="250.0" cy="907.3" r="11.70" fill="#8FC3DE" opacity="0.60"/><line x1="120.0" y1="530.6" x2="90.6" y2="545.3" stroke="#5FA8CC" stroke-width="1.12" opacity="0.20"/><line x1="120.0" y1="530.6" x2="149.4" y2="545.3" stroke="#5FA8CC" stroke-width="1.12" opacity="0.20"/><line x1="90.6" y1="545.3" x2="90.6" y2="574.7" stroke="#5FA8CC" stroke-width="1.12" opacity="0.20"/><line x1="149.4" y1="545.3" x2="149.4" y2="574.7" stroke="#5FA8CC" stroke-width="1.12" opacity="0.20"/><line x1="90.6" y1="574.7" x2="120.0" y2="589.4" stroke="#5FA8CC" stroke-width="1.12" opacity="0.20"/><line x1="149.4" y1="574.7" x2="120.0" y2="589.4" stroke="#5FA8CC" stroke-width="1.12" opacity="0.20"/><line x1="90.6" y1="545.3" x2="120.0" y2="560.0" stroke="#5FA8CC" stroke-width="1.54" opacity="0.34"/><line x1="149.4" y1="545.3" x2="120.0" y2="560.0" stroke="#5FA8CC" stroke-width="1.54" opacity="0.34"/><line x1="120.0" y1="560.0" x2="120.0" y2="589.4" stroke="#5FA8CC" stroke-width="1.54" opacity="0.34"/><line x1="120.0" y1="574.7" x2="120.0" y2="530.6" stroke="#5FA8CC" stroke-width="0.77" opacity="0.12"/><line x1="120.0" y1="574.7" x2="90.6" y2="545.3" stroke="#5FA8CC" stroke-width="0.77" opacity="0.12"/><line x1="120.0" y1="574.7" x2="149.4" y2="545.3" stroke="#5FA8CC" stroke-width="0.77" opacity="0.12"/><line x1="120.0" y1="574.7" x2="90.6" y2="574.7" stroke="#5FA8CC" stroke-width="0.77" opacity="0.12"/><line x1="120.0" y1="574.7" x2="149.4" y2="574.7" stroke="#5FA8CC" stroke-width="0.77" opacity="0.12"/><line x1="120.0" y1="574.7" x2="120.0" y2="589.4" stroke="#5FA8CC" stroke-width="0.77" opacity="0.12"/><circle cx="120.0" cy="530.6" r="3.50" fill="#5FA8CC" opacity="0.16"/><circle cx="90.6" cy="545.3" r="4.20" fill="#5FA8CC" opacity="0.30"/><circle cx="149.4" cy="545.3" r="4.20" fill="#5FA8CC" opacity="0.30"/><circle cx="90.6" cy="574.7" r="4.20" fill="#5FA8CC" opacity="0.30"/><circle cx="149.4" cy="574.7" r="4.20" fill="#5FA8CC" opacity="0.30"/><circle cx="120.0" cy="589.4" r="4.90" fill="#5FA8CC" opacity="0.34"/><circle cx="120.0" cy="560.0" r="4.90" fill="#5FA8CC" opacity="0.38"/><circle cx="120.0" cy="574.7" r="6.30" fill="#8FC3DE" opacity="0.50"/><line x1="1500.0" y1="862.2" x2="1462.2" y2="881.1" stroke="#5FA8CC" stroke-width="1.44" opacity="0.21"/><line x1="1500.0" y1="862.2" x2="1537.8" y2="881.1" stroke="#5FA8CC" stroke-width="1.44" opacity="0.21"/><line x1="1462.2" y1="881.1" x2="1462.2" y2="918.9" stroke="#5FA8CC" stroke-width="1.44" opacity="0.21"/><line x1="1537.8" y1="881.1" x2="1537.8" y2="918.9" stroke="#5FA8CC" stroke-width="1.44" opacity="0.21"/><line x1="1462.2" y1="918.9" x2="1500.0" y2="937.8" stroke="#5FA8CC" stroke-width="1.44" opacity="0.21"/><line x1="1537.8" y1="918.9" x2="1500.0" y2="937.8" stroke="#5FA8CC" stroke-width="1.44" opacity="0.21"/><line x1="1462.2" y1="881.1" x2="1500.0" y2="900.0" stroke="#5FA8CC" stroke-width="1.98" opacity="0.36"/><line x1="1537.8" y1="881.1" x2="1500.0" y2="900.0" stroke="#5FA8CC" stroke-width="1.98" opacity="0.36"/><line x1="1500.0" y1="900.0" x2="1500.0" y2="937.8" stroke="#5FA8CC" stroke-width="1.98" opacity="0.36"/><line x1="1500.0" y1="918.9" x2="1500.0" y2="862.2" stroke="#5FA8CC" stroke-width="0.99" opacity="0.13"/><line x1="1500.0" y1="918.9" x2="1462.2" y2="881.1" stroke="#5FA8CC" stroke-width="0.99" opacity="0.13"/><line x1="1500.0" y1="918.9" x2="1537.8" y2="881.1" stroke="#5FA8CC" stroke-width="0.99" opacity="0.13"/><line x1="1500.0" y1="918.9" x2="1462.2" y2="918.9" stroke="#5FA8CC" stroke-width="0.99" opacity="0.13"/><line x1="1500.0" y1="918.9" x2="1537.8" y2="918.9" stroke="#5FA8CC" stroke-width="0.99" opacity="0.13"/><line x1="1500.0" y1="918.9" x2="1500.0" y2="937.8" stroke="#5FA8CC" stroke-width="0.99" opacity="0.13"/><circle cx="1500.0" cy="862.2" r="4.50" fill="#5FA8CC" opacity="0.17"/><circle cx="1462.2" cy="881.1" r="5.40" fill="#5FA8CC" opacity="0.32"/><circle cx="1537.8" cy="881.1" r="5.40" fill="#5FA8CC" opacity="0.32"/><circle cx="1462.2" cy="918.9" r="5.40" fill="#5FA8CC" opacity="0.32"/><circle cx="1537.8" cy="918.9" r="5.40" fill="#5FA8CC" opacity="0.32"/><circle cx="1500.0" cy="937.8" r="6.30" fill="#5FA8CC" opacity="0.36"/><circle cx="1500.0" cy="900.0" r="6.30" fill="#5FA8CC" opacity="0.40"/><circle cx="1500.0" cy="918.9" r="8.10" fill="#8FC3DE" opacity="0.52"/><line x1="430.0" y1="150.6" x2="400.6" y2="165.3" stroke="#5FA8CC" stroke-width="1.12" opacity="0.20"/><line x1="430.0" y1="150.6" x2="459.4" y2="165.3" stroke="#5FA8CC" stroke-width="1.12" opacity="0.20"/><line x1="400.6" y1="165.3" x2="400.6" y2="194.7" stroke="#5FA8CC" stroke-width="1.12" opacity="0.20"/><line x1="459.4" y1="165.3" x2="459.4" y2="194.7" stroke="#5FA8CC" stroke-width="1.12" opacity="0.20"/><line x1="400.6" y1="194.7" x2="430.0" y2="209.4" stroke="#5FA8CC" stroke-width="1.12" opacity="0.20"/><line x1="459.4" y1="194.7" x2="430.0" y2="209.4" stroke="#5FA8CC" stroke-width="1.12" opacity="0.20"/><line x1="400.6" y1="165.3" x2="430.0" y2="180.0" stroke="#5FA8CC" stroke-width="1.54" opacity="0.34"/><line x1="459.4" y1="165.3" x2="430.0" y2="180.0" stroke="#5FA8CC" stroke-width="1.54" opacity="0.34"/><line x1="430.0" y1="180.0" x2="430.0" y2="209.4" stroke="#5FA8CC" stroke-width="1.54" opacity="0.34"/><line x1="430.0" y1="194.7" x2="430.0" y2="150.6" stroke="#5FA8CC" stroke-width="0.77" opacity="0.12"/><line x1="430.0" y1="194.7" x2="400.6" y2="165.3" stroke="#5FA8CC" stroke-width="0.77" opacity="0.12"/><line x1="430.0" y1="194.7" x2="459.4" y2="165.3" stroke="#5FA8CC" stroke-width="0.77" opacity="0.12"/><line x1="430.0" y1="194.7" x2="400.6" y2="194.7" stroke="#5FA8CC" stroke-width="0.77" opacity="0.12"/><line x1="430.0" y1="194.7" x2="459.4" y2="194.7" stroke="#5FA8CC" stroke-width="0.77" opacity="0.12"/><line x1="430.0" y1="194.7" x2="430.0" y2="209.4" stroke="#5FA8CC" stroke-width="0.77" opacity="0.12"/><circle cx="430.0" cy="150.6" r="3.50" fill="#5FA8CC" opacity="0.16"/><circle cx="400.6" cy="165.3" r="4.20" fill="#5FA8CC" opacity="0.30"/><circle cx="459.4" cy="165.3" r="4.20" fill="#5FA8CC" opacity="0.30"/><circle cx="400.6" cy="194.7" r="4.20" fill="#5FA8CC" opacity="0.30"/><circle cx="459.4" cy="194.7" r="4.20" fill="#5FA8CC" opacity="0.30"/><circle cx="430.0" cy="209.4" r="4.90" fill="#5FA8CC" opacity="0.34"/><circle cx="430.0" cy="180.0" r="4.90" fill="#5FA8CC" opacity="0.38"/><circle cx="430.0" cy="194.7" r="6.30" fill="#8FC3DE" opacity="0.50"/></svg>