<svg viewBox="0 0 1600 1000" xmlns="http://www.w3.org/2000/svg" role="img">
<title>Getamazednow AI — hero lattice graphic</title>
<desc>Branded Tensor Node Lattice constellation on Ink, the default cover graphic for whitepapers when no topic-specific image is supplied.</desc>
<rect width="1600" height="1000" fill="#2A363B"/>
<line x1="1120" y1="556" x2="760" y2="735" stroke="#5FA8CC" stroke-width="1" opacity="0.12"/><line x1="1120" y1="556" x2="950" y2="243" stroke="#5FA8CC" stroke-width="1" opacity="0.12"/><line x1="1120" y1="556" x2="1380" y2="830" stroke="#5FA8CC" stroke-width="1" opacity="0.12"/><line x1="420" y1="321" x2="300" y2="732" stroke="#5FA8CC" stroke-width="1" opacity="0.12"/><line x1="420" y1="321" x2="560" y2="479" stroke="#5FA8CC" stroke-width="1" opacity="0.12"/><line x1="760" y1="735" x2="300" y2="732" stroke="#5FA8CC" stroke-width="1" opacity="0.12"/><line x1="760" y1="735" x2="560" y2="479" stroke="#5FA8CC" stroke-width="1" opacity="0.12"/><line x1="300" y1="732" x2="560" y2="479" stroke="#5FA8CC" stroke-width="1" opacity="0.12"/><line x1="950" y1="243" x2="560" y2="479" stroke="#5FA8CC" stroke-width="1" opacity="0.12"/>
<line x1="1120.0" y1="448.6" x2="1048.6" y2="484.3" stroke="#5FA8CC" stroke-width="2.72" opacity="0.50"/><line x1="1120.0" y1="448.6" x2="1191.4" y2="484.3" stroke="#5FA8CC" stroke-width="2.72" opacity="0.50"/><line x1="1048.6" y1="484.3" x2="1048.6" y2="555.7" stroke="#5FA8CC" stroke-width="2.72" opacity="0.50"/><line x1="1191.4" y1="484.3" x2="1191.4" y2="555.7" stroke="#5FA8CC" stroke-width="2.72" opacity="0.50"/><line x1="1048.6" y1="555.7" x2="1120.0" y2="591.4" stroke="#5FA8CC" stroke-width="2.72" opacity="0.50"/><line x1="1191.4" y1="555.7" x2="1120.0" y2="591.4" stroke="#5FA8CC" stroke-width="2.72" opacity="0.50"/><line x1="1048.6" y1="484.3" x2="1120.0" y2="520.0" stroke="#5FA8CC" stroke-width="3.74" opacity="0.85"/><line x1="1191.4" y1="484.3" x2="1120.0" y2="520.0" stroke="#5FA8CC" stroke-width="3.74" opacity="0.85"/><line x1="1120.0" y1="520.0" x2="1120.0" y2="591.4" stroke="#5FA8CC" stroke-width="3.74" opacity="0.85"/><line x1="1120.0" y1="555.7" x2="1120.0" y2="448.6" stroke="#5FA8CC" stroke-width="1.87" opacity="0.30"/><line x1="1120.0" y1="555.7" x2="1048.6" y2="484.3" stroke="#5FA8CC" stroke-width="1.87" opacity="0.30"/><line x1="1120.0" y1="555.7" x2="1191.4" y2="484.3" stroke="#5FA8CC" stroke-width="1.87" opacity="0.30"/><line x1="1120.0" y1="555.7" x2="1048.6" y2="555.7" stroke="#5FA8CC" stroke-width="1.87" opacity="0.30"/><line x1="1120.0" y1="555.7" x2="1191.4" y2="555.7" stroke="#5FA8CC" stroke-width="1.87" opacity="0.30"/><line x1="1120.0" y1="555.7" x2="1120.0" y2="591.4" stroke="#5FA8CC" stroke-width="1.87" opacity="0.30"/><circle cx="1120.0" cy="448.6" r="8.50" fill="#5FA8CC" opacity="0.40"/><circle cx="1048.6" cy="484.3" r="10.20" fill="#5FA8CC" opacity="0.75"/><circle cx="1191.4" cy="484.3" r="10.20" fill="#5FA8CC" opacity="0.75"/><circle cx="1048.6" cy="555.7" r="10.20" fill="#5FA8CC" opacity="0.75"/><circle cx="1191.4" cy="555.7" r="10.20" fill="#5FA8CC" opacity="0.75"/><circle cx="1120.0" cy="591.4" r="11.90" fill="#5FA8CC" opacity="0.85"/><circle cx="1120.0" cy="520.0" r="11.90" fill="#5FA8CC" opacity="0.95"/><circle cx="1120.0" cy="555.7" r="15.30" fill="#8FC3DE" opacity="1.00"/><line x1="420.0" y1="258.0" x2="378.0" y2="279.0" stroke="#5FA8CC" stroke-width="1.60" opacity="0.42"/><line x1="420.0" y1="258.0" x2="462.0" y2="279.0" stroke="#5FA8CC" stroke-width="1.60" opacity="0.42"/><line x1="378.0" y1="279.0" x2="378.0" y2="321.0" stroke="#5FA8CC" stroke-width="1.60" opacity="0.42"/><line x1="462.0" y1="279.0" x2="462.0" y2="321.0" stroke="#5FA8CC" stroke-width="1.60" opacity="0.42"/><line x1="378.0" y1="321.0" x2="420.0" y2="342.0" stroke="#5FA8CC" stroke-width="1.60" opacity="0.42"/><line x1="462.0" y1="321.0" x2="420.0" y2="342.0" stroke="#5FA8CC" stroke-width="1.60" opacity="0.42"/><line x1="378.0" y1="279.0" x2="420.0" y2="300.0" stroke="#5FA8CC" stroke-width="2.20" opacity="0.72"/><line x1="462.0" y1="279.0" x2="420.0" y2="300.0" stroke="#5FA8CC" stroke-width="2.20" opacity="0.72"/><line x1="420.0" y1="300.0" x2="420.0" y2="342.0" stroke="#5FA8CC" stroke-width="2.20" opacity="0.72"/><line x1="420.0" y1="321.0" x2="420.0" y2="258.0" stroke="#5FA8CC" stroke-width="1.10" opacity="0.26"/><line x1="420.0" y1="321.0" x2="378.0" y2="279.0" stroke="#5FA8CC" stroke-width="1.10" opacity="0.26"/><line x1="420.0" y1="321.0" x2="462.0" y2="279.0" stroke="#5FA8CC" stroke-width="1.10" opacity="0.26"/><line x1="420.0" y1="321.0" x2="378.0" y2="321.0" stroke="#5FA8CC" stroke-width="1.10" opacity="0.26"/><line x1="420.0" y1="321.0" x2="462.0" y2="321.0" stroke="#5FA8CC" stroke-width="1.10" opacity="0.26"/><line x1="420.0" y1="321.0" x2="420.0" y2="342.0" stroke="#5FA8CC" stroke-width="1.10" opacity="0.26"/><circle cx="420.0" cy="258.0" r="5.00" fill="#5FA8CC" opacity="0.34"/><circle cx="378.0" cy="279.0" r="6.00" fill="#5FA8CC" opacity="0.64"/><circle cx="462.0" cy="279.0" r="6.00" fill="#5FA8CC" opacity="0.64"/><circle cx="378.0" cy="321.0" r="6.00" fill="#5FA8CC" opacity="0.64"/><circle cx="462.0" cy="321.0" r="6.00" fill="#5FA8CC" opacity="0.64"/><circle cx="420.0" cy="342.0" r="7.00" fill="#5FA8CC" opacity="0.72"/><circle cx="420.0" cy="300.0" r="7.00" fill="#5FA8CC" opacity="0.81"/><circle cx="420.0" cy="321.0" r="9.00" fill="#8FC3DE" opacity="1.00"/><line x1="760.0" y1="690.6" x2="730.6" y2="705.3" stroke="#5FA8CC" stroke-width="1.12" opacity="0.30"/><line x1="760.0" y1="690.6" x2="789.4" y2="705.3" stroke="#5FA8CC" stroke-width="1.12" opacity="0.30"/><line x1="730.6" y1="705.3" x2="730.6" y2="734.7" stroke="#5FA8CC" stroke-width="1.12" opacity="0.30"/><line x1="789.4" y1="705.3" x2="789.4" y2="734.7" stroke="#5FA8CC" stroke-width="1.12" opacity="0.30"/><line x1="730.6" y1="734.7" x2="760.0" y2="749.4" stroke="#5FA8CC" stroke-width="1.12" opacity="0.30"/><line x1="789.4" y1="734.7" x2="760.0" y2="749.4" stroke="#5FA8CC" stroke-width="1.12" opacity="0.30"/><line x1="730.6" y1="705.3" x2="760.0" y2="720.0" stroke="#5FA8CC" stroke-width="1.54" opacity="0.51"/><line x1="789.4" y1="705.3" x2="760.0" y2="720.0" stroke="#5FA8CC" stroke-width="1.54" opacity="0.51"/><line x1="760.0" y1="720.0" x2="760.0" y2="749.4" stroke="#5FA8CC" stroke-width="1.54" opacity="0.51"/><line x1="760.0" y1="734.7" x2="760.0" y2="690.6" stroke="#5FA8CC" stroke-width="0.77" opacity="0.18"/><line x1="760.0" y1="734.7" x2="730.6" y2="705.3" stroke="#5FA8CC" stroke-width="0.77" opacity="0.18"/><line x1="760.0" y1="734.7" x2="789.4" y2="705.3" stroke="#5FA8CC" stroke-width="0.77" opacity="0.18"/><line x1="760.0" y1="734.7" x2="730.6" y2="734.7" stroke="#5FA8CC" stroke-width="0.77" opacity="0.18"/><line x1="760.0" y1="734.7" x2="789.4" y2="734.7" stroke="#5FA8CC" stroke-width="0.77" opacity="0.18"/><line x1="760.0" y1="734.7" x2="760.0" y2="749.4" stroke="#5FA8CC" stroke-width="0.77" opacity="0.18"/><circle cx="760.0" cy="690.6" r="3.50" fill="#5FA8CC" opacity="0.24"/><circle cx="730.6" cy="705.3" r="4.20" fill="#5FA8CC" opacity="0.45"/><circle cx="789.4" cy="705.3" r="4.20" fill="#5FA8CC" opacity="0.45"/><circle cx="730.6" cy="734.7" r="4.20" fill="#5FA8CC" opacity="0.45"/><circle cx="789.4" cy="734.7" r="4.20" fill="#5FA8CC" opacity="0.45"/><circle cx="760.0" cy="749.4" r="4.90" fill="#5FA8CC" opacity="0.51"/><circle cx="760.0" cy="720.0" r="4.90" fill="#5FA8CC" opacity="0.57"/><circle cx="760.0" cy="734.7" r="6.30" fill="#8FC3DE" opacity="0.75"/><line x1="300.0" y1="696.9" x2="276.9" y2="708.5" stroke="#5FA8CC" stroke-width="0.88" opacity="0.25"/><line x1="300.0" y1="696.9" x2="323.1" y2="708.5" stroke="#5FA8CC" stroke-width="0.88" opacity="0.25"/><line x1="276.9" y1="708.5" x2="276.9" y2="731.5" stroke="#5FA8CC" stroke-width="0.88" opacity="0.25"/><line x1="323.1" y1="708.5" x2="323.1" y2="731.5" stroke="#5FA8CC" stroke-width="0.88" opacity="0.25"/><line x1="276.9" y1="731.5" x2="300.0" y2="743.1" stroke="#5FA8CC" stroke-width="0.88" opacity="0.25"/><line x1="323.1" y1="731.5" x2="300.0" y2="743.1" stroke="#5FA8CC" stroke-width="0.88" opacity="0.25"/><line x1="276.9" y1="708.5" x2="300.0" y2="720.0" stroke="#5FA8CC" stroke-width="1.21" opacity="0.42"/><line x1="323.1" y1="708.5" x2="300.0" y2="720.0" stroke="#5FA8CC" stroke-width="1.21" opacity="0.42"/><line x1="300.0" y1="720.0" x2="300.0" y2="743.1" stroke="#5FA8CC" stroke-width="1.21" opacity="0.42"/><line x1="300.0" y1="731.5" x2="300.0" y2="696.9" stroke="#5FA8CC" stroke-width="0.61" opacity="0.15"/><line x1="300.0" y1="731.5" x2="276.9" y2="708.5" stroke="#5FA8CC" stroke-width="0.61" opacity="0.15"/><line x1="300.0" y1="731.5" x2="323.1" y2="708.5" stroke="#5FA8CC" stroke-width="0.61" opacity="0.15"/><line x1="300.0" y1="731.5" x2="276.9" y2="731.5" stroke="#5FA8CC" stroke-width="0.61" opacity="0.15"/><line x1="300.0" y1="731.5" x2="323.1" y2="731.5" stroke="#5FA8CC" stroke-width="0.61" opacity="0.15"/><line x1="300.0" y1="731.5" x2="300.0" y2="743.1" stroke="#5FA8CC" stroke-width="0.61" opacity="0.15"/><circle cx="300.0" cy="696.9" r="2.75" fill="#5FA8CC" opacity="0.20"/><circle cx="276.9" cy="708.5" r="3.30" fill="#5FA8CC" opacity="0.38"/><circle cx="323.1" cy="708.5" r="3.30" fill="#5FA8CC" opacity="0.38"/><circle cx="276.9" cy="731.5" r="3.30" fill="#5FA8CC" opacity="0.38"/><circle cx="323.1" cy="731.5" r="3.30" fill="#5FA8CC" opacity="0.38"/><circle cx="300.0" cy="743.1" r="3.85" fill="#5FA8CC" opacity="0.42"/><circle cx="300.0" cy="720.0" r="3.85" fill="#5FA8CC" opacity="0.47"/><circle cx="300.0" cy="731.5" r="4.95" fill="#8FC3DE" opacity="0.65"/><line x1="950.0" y1="204.8" x2="924.8" y2="217.4" stroke="#5FA8CC" stroke-width="0.96" opacity="0.28"/><line x1="950.0" y1="204.8" x2="975.2" y2="217.4" stroke="#5FA8CC" stroke-width="0.96" opacity="0.28"/><line x1="924.8" y1="217.4" x2="924.8" y2="242.6" stroke="#5FA8CC" stroke-width="0.96" opacity="0.28"/><line x1="975.2" y1="217.4" x2="975.2" y2="242.6" stroke="#5FA8CC" stroke-width="0.96" opacity="0.28"/><line x1="924.8" y1="242.6" x2="950.0" y2="255.2" stroke="#5FA8CC" stroke-width="0.96" opacity="0.28"/><line x1="975.2" y1="242.6" x2="950.0" y2="255.2" stroke="#5FA8CC" stroke-width="0.96" opacity="0.28"/><line x1="924.8" y1="217.4" x2="950.0" y2="230.0" stroke="#5FA8CC" stroke-width="1.32" opacity="0.47"/><line x1="975.2" y1="217.4" x2="950.0" y2="230.0" stroke="#5FA8CC" stroke-width="1.32" opacity="0.47"/><line x1="950.0" y1="230.0" x2="950.0" y2="255.2" stroke="#5FA8CC" stroke-width="1.32" opacity="0.47"/><line x1="950.0" y1="242.6" x2="950.0" y2="204.8" stroke="#5FA8CC" stroke-width="0.66" opacity="0.17"/><line x1="950.0" y1="242.6" x2="924.8" y2="217.4" stroke="#5FA8CC" stroke-width="0.66" opacity="0.17"/><line x1="950.0" y1="242.6" x2="975.2" y2="217.4" stroke="#5FA8CC" stroke-width="0.66" opacity="0.17"/><line x1="950.0" y1="242.6" x2="924.8" y2="242.6" stroke="#5FA8CC" stroke-width="0.66" opacity="0.17"/><line x1="950.0" y1="242.6" x2="975.2" y2="242.6" stroke="#5FA8CC" stroke-width="0.66" opacity="0.17"/><line x1="950.0" y1="242.6" x2="950.0" y2="255.2" stroke="#5FA8CC" stroke-width="0.66" opacity="0.17"/><circle cx="950.0" cy="204.8" r="3.00" fill="#5FA8CC" opacity="0.22"/><circle cx="924.8" cy="217.4" r="3.60" fill="#5FA8CC" opacity="0.41"/><circle cx="975.2" cy="217.4" r="3.60" fill="#5FA8CC" opacity="0.41"/><circle cx="924.8" cy="242.6" r="3.60" fill="#5FA8CC" opacity="0.41"/><circle cx="975.2" cy="242.6" r="3.60" fill="#5FA8CC" opacity="0.41"/><circle cx="950.0" cy="255.2" r="4.20" fill="#5FA8CC" opacity="0.47"/><circle cx="950.0" cy="230.0" r="4.20" fill="#5FA8CC" opacity="0.52"/><circle cx="950.0" cy="242.6" r="5.40" fill="#8FC3DE" opacity="0.70"/><line x1="1380.0" y1="799.0" x2="1359.0" y2="809.5" stroke="#5FA8CC" stroke-width="0.80" opacity="0.23"/><line x1="1380.0" y1="799.0" x2="1401.0" y2="809.5" stroke="#5FA8CC" stroke-width="0.80" opacity="0.23"/><line x1="1359.0" y1="809.5" x2="1359.0" y2="830.5" stroke="#5FA8CC" stroke-width="0.80" opacity="0.23"/><line x1="1401.0" y1="809.5" x2="1401.0" y2="830.5" stroke="#5FA8CC" stroke-width="0.80" opacity="0.23"/><line x1="1359.0" y1="830.5" x2="1380.0" y2="841.0" stroke="#5FA8CC" stroke-width="0.80" opacity="0.23"/><line x1="1401.0" y1="830.5" x2="1380.0" y2="841.0" stroke="#5FA8CC" stroke-width="0.80" opacity="0.23"/><line x1="1359.0" y1="809.5" x2="1380.0" y2="820.0" stroke="#5FA8CC" stroke-width="1.10" opacity="0.38"/><line x1="1401.0" y1="809.5" x2="1380.0" y2="820.0" stroke="#5FA8CC" stroke-width="1.10" opacity="0.38"/><line x1="1380.0" y1="820.0" x2="1380.0" y2="841.0" stroke="#5FA8CC" stroke-width="1.10" opacity="0.38"/><line x1="1380.0" y1="830.5" x2="1380.0" y2="799.0" stroke="#5FA8CC" stroke-width="0.55" opacity="0.14"/><line x1="1380.0" y1="830.5" x2="1359.0" y2="809.5" stroke="#5FA8CC" stroke-width="0.55" opacity="0.14"/><line x1="1380.0" y1="830.5" x2="1401.0" y2="809.5" stroke="#5FA8CC" stroke-width="0.55" opacity="0.14"/><line x1="1380.0" y1="830.5" x2="1359.0" y2="830.5" stroke="#5FA8CC" stroke-width="0.55" opacity="0.14"/><line x1="1380.0" y1="830.5" x2="1401.0" y2="830.5" stroke="#5FA8CC" stroke-width="0.55" opacity="0.14"/><line x1="1380.0" y1="830.5" x2="1380.0" y2="841.0" stroke="#5FA8CC" stroke-width="0.55" opacity="0.14"/><circle cx="1380.0" cy="799.0" r="2.50" fill="#5FA8CC" opacity="0.18"/><circle cx="1359.0" cy="809.5" r="3.00" fill="#5FA8CC" opacity="0.34"/><circle cx="1401.0" cy="809.5" r="3.00" fill="#5FA8CC" opacity="0.34"/><circle cx="1359.0" cy="830.5" r="3.00" fill="#5FA8CC" opacity="0.34"/><circle cx="1401.0" cy="830.5" r="3.00" fill="#5FA8CC" opacity="0.34"/><circle cx="1380.0" cy="841.0" r="3.50" fill="#5FA8CC" opacity="0.38"/><circle cx="1380.0" cy="820.0" r="3.50" fill="#5FA8CC" opacity="0.43"/><circle cx="1380.0" cy="830.5" r="4.50" fill="#8FC3DE" opacity="0.60"/><line x1="560.0" y1="451.1" x2="541.1" y2="460.6" stroke="#5FA8CC" stroke-width="0.72" opacity="0.20"/><line x1="560.0" y1="451.1" x2="578.9" y2="460.6" stroke="#5FA8CC" stroke-width="0.72" opacity="0.20"/><line x1="541.1" y1="460.6" x2="541.1" y2="479.4" stroke="#5FA8CC" stroke-width="0.72" opacity="0.20"/><line x1="578.9" y1="460.6" x2="578.9" y2="479.4" stroke="#5FA8CC" stroke-width="0.72" opacity="0.20"/><line x1="541.1" y1="479.4" x2="560.0" y2="488.9" stroke="#5FA8CC" stroke-width="0.72" opacity="0.20"/><line x1="578.9" y1="479.4" x2="560.0" y2="488.9" stroke="#5FA8CC" stroke-width="0.72" opacity="0.20"/><line x1="541.1" y1="460.6" x2="560.0" y2="470.0" stroke="#5FA8CC" stroke-width="0.99" opacity="0.34"/><line x1="578.9" y1="460.6" x2="560.0" y2="470.0" stroke="#5FA8CC" stroke-width="0.99" opacity="0.34"/><line x1="560.0" y1="470.0" x2="560.0" y2="488.9" stroke="#5FA8CC" stroke-width="0.99" opacity="0.34"/><line x1="560.0" y1="479.4" x2="560.0" y2="451.1" stroke="#5FA8CC" stroke-width="0.50" opacity="0.12"/><line x1="560.0" y1="479.4" x2="541.1" y2="460.6" stroke="#5FA8CC" stroke-width="0.50" opacity="0.12"/><line x1="560.0" y1="479.4" x2="578.9" y2="460.6" stroke="#5FA8CC" stroke-width="0.50" opacity="0.12"/><line x1="560.0" y1="479.4" x2="541.1" y2="479.4" stroke="#5FA8CC" stroke-width="0.50" opacity="0.12"/><line x1="560.0" y1="479.4" x2="578.9" y2="479.4" stroke="#5FA8CC" stroke-width="0.50" opacity="0.12"/><line x1="560.0" y1="479.4" x2="560.0" y2="488.9" stroke="#5FA8CC" stroke-width="0.50" opacity="0.12"/><circle cx="560.0" cy="451.1" r="2.25" fill="#5FA8CC" opacity="0.16"/><circle cx="541.1" cy="460.6" r="2.70" fill="#5FA8CC" opacity="0.30"/><circle cx="578.9" cy="460.6" r="2.70" fill="#5FA8CC" opacity="0.30"/><circle cx="541.1" cy="479.4" r="2.70" fill="#5FA8CC" opacity="0.30"/><circle cx="578.9" cy="479.4" r="2.70" fill="#5FA8CC" opacity="0.30"/><circle cx="560.0" cy="488.9" r="3.15" fill="#5FA8CC" opacity="0.34"/><circle cx="560.0" cy="470.0" r="3.15" fill="#5FA8CC" opacity="0.38"/><circle cx="560.0" cy="479.4" r="4.05" fill="#8FC3DE" opacity="0.55"/>
</svg>